# xmcd CD database file
#
# Track frame offsets:
#	182
#	13702
#	27952
#	43250
#	52962
#	69777
#	81935
#	101252
#	117070
#	131915
#	148837
#	165452
#
# Disc length: 2463 seconds
#
# Revision: 3
# Processed by: cddbd v1.4PL0 Copyright (c) Steve Scherf et al.
# Submitted via: CDex 1.50beta10
#
DISCID=9a099d0c
DTITLE=The Haunted - The Haunted
DYEAR=1998
DGENRE=Metal
TTITLE0=Hate Song
TTITLE1=Chasm
TTITLE2=In Vein
TTITLE3=Undead
TTITLE4=Choke Hold
TTITLE5=Three Times
TTITLE6=Bullet Hole
TTITLE7=Now You Know
TTITLE8=Shattered
TTITLE9=Soul Fracture
TTITLE10=Blood Rust
TTITLE11=Forensick
EXTD=YEAR: 1998
EXTT0=
EXTT1=
EXTT2=
EXTT3=
EXTT4=
EXTT5=
EXTT6=
EXTT7=
EXTT8=
EXTT9=
EXTT10=
EXTT11=
PLAYORDER=
